<svg id="svg" version="1.1" xmlns="http://www.w3.org/2000/svg" xmlns:xlink="http://www.w3.org/1999/xlink" width="400" height="492" viewBox="0, 0, 400,492"><g id="svgg"><path id="path0" d="M14.338 2.016 C 10.009 2.521,7.749 3.967,6.858 6.800 C 5.946 9.701,6.049 474.643,6.962 476.800 C 9.076 481.793,11.595 482.383,30.800 482.390 C 50.255 482.397,52.326 481.759,53.847 475.298 C 54.427 472.831,54.611 282.362,54.036 279.800 L 53.766 278.600 53.464 280.000 C 53.209 281.185,53.088 281.306,52.681 280.786 C 52.266 280.256,51.381 280.217,46.200 280.500 C 36.588 281.025,17.913 280.676,14.800 279.913 C 13.370 279.562,11.345 279.158,10.300 279.013 C 8.706 278.793,8.395 278.610,8.368 277.875 C 8.351 277.394,8.246 277.225,8.135 277.500 C 8.024 277.775,7.768 278.000,7.567 278.000 C 7.345 278.000,7.200 230.523,7.200 158.157 C 7.200 51.795,7.267 38.340,7.800 38.545 C 8.136 38.674,8.400 38.555,8.400 38.275 C 8.400 37.779,9.557 37.396,14.200 36.352 C 16.962 35.731,48.935 35.473,50.984 36.056 C 51.703 36.260,52.323 36.237,52.564 35.996 C 53.206 35.354,53.597 35.538,53.640 36.500 C 53.678 37.363,53.693 37.359,54.000 36.400 C 54.784 33.953,54.448 9.120,53.600 6.800 C 53.160 5.596,52.800 4.571,52.800 4.523 C 52.800 3.954,48.782 2.336,46.582 2.018 C 43.374 1.554,18.306 1.553,14.338 2.016 M278.033 116.152 C 278.441 116.524,282.400 118.393,282.400 118.213 C 282.400 117.988,278.580 116.000,278.147 116.000 C 277.993 116.000,277.942 116.068,278.033 116.152 M377.584 153.048 C 380.463 155.470,380.858 159.718,378.473 162.619 C 378.103 163.070,378.286 162.942,378.880 162.335 C 380.097 161.092,380.970 158.408,380.589 157.080 C 380.045 155.186,379.138 153.609,378.138 152.823 C 376.607 151.619,376.120 151.816,377.584 153.048 M359.800 170.771 C 358.480 171.413,357.610 171.952,357.867 171.969 C 358.565 172.015,361.872 170.531,362.180 170.033 C 362.546 169.440,362.514 169.450,359.800 170.771 M256.400 207.000 C 255.410 207.530,254.742 207.972,254.916 207.982 C 255.341 208.006,258.400 206.434,258.400 206.192 C 258.400 205.927,258.417 205.920,256.400 207.000 M187.600 231.000 C 186.610 231.530,185.944 231.972,186.120 231.982 C 186.296 231.992,186.948 231.737,187.569 231.416 C 188.190 231.095,188.766 230.897,188.849 230.976 C 188.932 231.055,189.232 230.867,189.516 230.560 C 190.254 229.759,189.665 229.894,187.600 231.000 M84.400 267.200 C 83.630 267.622,83.144 267.974,83.320 267.983 C 83.744 268.005,86.000 266.832,86.000 266.590 C 86.000 266.328,85.977 266.337,84.400 267.200 " stroke="none" fill="#eceff1" fill-rule="evenodd"></path><path id="path1" d="M18.200 35.769 C 17.980 35.849,16.450 36.129,14.800 36.392 C 10.521 37.075,8.400 37.698,8.400 38.275 C 8.400 38.555,8.136 38.674,7.800 38.545 C 7.267 38.340,7.200 51.795,7.200 158.157 C 7.200 230.523,7.345 278.000,7.567 278.000 C 7.768 278.000,8.024 277.775,8.135 277.500 C 8.246 277.225,8.351 277.394,8.368 277.875 C 8.395 278.610,8.706 278.793,10.300 279.013 C 11.345 279.158,13.370 279.562,14.800 279.913 C 17.913 280.676,36.588 281.025,46.200 280.500 C 51.381 280.217,52.266 280.256,52.681 280.786 C 53.088 281.306,53.209 281.185,53.464 280.000 L 53.766 278.600 54.036 279.800 C 54.304 280.994,54.306 280.994,54.353 279.924 C 54.412 278.586,54.439 278.569,57.899 277.848 C 59.461 277.522,61.918 276.630,63.358 275.866 C 64.894 275.051,67.099 274.286,68.689 274.016 C 70.180 273.763,72.210 273.119,73.200 272.584 C 76.572 270.765,77.400 270.466,80.764 269.853 C 82.986 269.448,84.768 268.842,86.014 268.068 C 88.159 266.734,89.758 266.179,92.538 265.802 C 93.605 265.658,95.800 264.843,97.417 263.991 C 99.068 263.122,101.461 262.246,102.878 261.992 C 104.300 261.738,106.491 260.935,107.901 260.150 C 109.631 259.189,111.472 258.573,113.871 258.154 C 117.301 257.555,118.798 256.997,120.862 255.546 C 121.446 255.136,123.647 254.453,125.754 254.029 C 128.503 253.476,130.235 252.862,131.892 251.854 C 133.275 251.012,135.001 250.339,136.200 250.175 C 138.885 249.806,141.424 248.928,143.195 247.756 C 144.038 247.198,145.997 246.535,147.828 246.187 C 151.971 245.401,153.379 244.922,155.492 243.583 C 156.543 242.916,158.304 242.297,159.919 242.026 C 163.020 241.505,164.449 241.002,166.400 239.743 C 167.170 239.247,169.510 238.470,171.600 238.017 C 174.041 237.488,176.100 236.758,177.358 235.977 C 178.673 235.161,180.558 234.511,183.097 234.000 C 185.177 233.582,187.626 232.842,188.539 232.357 C 189.453 231.871,190.682 231.225,191.271 230.922 C 191.860 230.618,193.432 230.178,194.763 229.944 C 196.222 229.687,198.102 228.963,199.492 228.124 C 201.143 227.127,202.744 226.565,205.118 226.149 C 209.088 225.452,210.041 225.115,211.781 223.788 C 212.710 223.079,214.142 222.595,216.571 222.172 C 220.665 221.457,221.765 221.074,223.476 219.769 C 224.333 219.115,226.026 218.538,228.609 218.018 C 231.284 217.480,233.046 216.869,234.370 216.019 C 235.625 215.214,237.532 214.527,239.951 214.011 C 242.224 213.525,244.573 212.700,246.112 211.848 C 247.839 210.892,249.517 210.337,251.600 210.035 C 253.728 209.725,255.519 209.124,257.758 207.968 C 259.670 206.981,261.881 206.187,263.358 205.958 C 264.719 205.747,267.217 204.888,269.000 204.017 C 270.760 203.157,272.920 202.337,273.800 202.193 C 276.468 201.759,278.109 201.166,280.082 199.924 C 281.671 198.924,286.223 197.693,288.624 197.614 C 288.856 197.606,290.102 196.965,291.390 196.189 C 293.653 194.826,294.383 194.587,299.243 193.616 C 300.536 193.358,302.166 192.668,303.093 191.986 C 304.273 191.118,305.719 190.600,308.542 190.032 C 311.262 189.484,313.058 188.854,314.692 187.872 C 316.391 186.852,317.837 186.358,320.170 186.003 C 323.630 185.475,324.531 185.156,327.131 183.537 C 328.083 182.945,329.613 182.344,330.531 182.203 C 333.515 181.743,336.458 180.773,338.037 179.728 C 338.994 179.094,340.963 178.428,343.206 177.978 C 345.608 177.496,347.506 176.834,348.842 176.012 C 350.204 175.174,352.089 174.525,354.667 174.007 C 356.763 173.585,359.226 172.842,360.139 172.357 C 361.053 171.871,362.250 171.243,362.800 170.960 C 363.350 170.678,365.144 170.168,366.786 169.827 C 368.676 169.435,370.603 168.695,372.032 167.813 C 373.274 167.046,375.170 166.043,376.245 165.583 C 383.757 162.375,383.628 154.345,376.000 150.334 C 374.350 149.466,372.247 148.310,371.328 147.763 C 370.408 147.217,368.371 146.526,366.801 146.227 C 365.232 145.928,362.654 145.027,361.074 144.226 C 359.216 143.283,357.013 142.561,354.842 142.183 C 352.594 141.791,350.856 141.211,349.579 140.425 C 347.533 139.166,344.096 138.000,342.427 137.999 C 341.862 137.999,340.770 137.648,340.000 137.219 C 336.682 135.372,335.017 134.726,332.163 134.180 C 330.310 133.826,328.169 133.063,326.660 132.219 C 324.939 131.257,323.123 130.651,320.676 130.224 C 318.308 129.811,316.744 129.300,315.881 128.656 C 313.785 127.092,312.883 126.753,309.268 126.168 C 306.863 125.778,305.262 125.261,303.962 124.452 C 301.888 123.163,300.510 122.672,297.039 121.985 C 295.741 121.728,293.566 120.906,292.206 120.159 C 290.846 119.412,288.669 118.598,287.367 118.352 C 286.065 118.106,283.550 117.197,281.778 116.333 C 279.703 115.321,277.365 114.554,275.208 114.178 C 272.905 113.776,271.287 113.226,270.026 112.417 C 268.220 111.258,264.310 110.000,262.514 110.000 C 262.009 110.000,260.202 109.279,258.498 108.399 C 256.794 107.518,254.118 106.535,252.550 106.215 C 250.983 105.894,248.463 104.987,246.950 104.199 C 245.170 103.271,243.051 102.565,240.944 102.199 C 238.818 101.830,236.805 101.156,235.144 100.259 C 233.745 99.504,231.160 98.577,229.400 98.199 C 227.640 97.821,225.120 96.917,223.800 96.188 C 222.480 95.459,220.230 94.652,218.800 94.393 C 217.370 94.134,214.755 93.217,212.990 92.356 C 211.044 91.406,208.465 90.542,206.440 90.160 C 204.303 89.757,202.199 89.035,200.597 88.154 C 199.186 87.378,196.888 86.548,195.332 86.252 C 193.813 85.962,192.037 85.433,191.385 85.076 C 188.229 83.345,186.550 82.715,183.827 82.242 C 181.886 81.904,180.203 81.308,178.934 80.509 C 176.610 79.046,175.079 78.538,171.477 78.034 C 169.617 77.774,168.159 77.276,166.877 76.462 C 164.991 75.265,161.369 74.000,159.827 74.000 C 159.372 74.000,157.560 73.284,155.800 72.408 C 154.040 71.533,151.318 70.550,149.750 70.225 C 148.183 69.899,145.663 68.987,144.150 68.199 C 142.370 67.271,140.251 66.565,138.144 66.199 C 135.947 65.817,134.044 65.169,132.293 64.207 C 130.717 63.341,128.519 62.555,126.700 62.207 C 125.020 61.885,122.493 61.010,120.951 60.216 C 119.438 59.436,116.850 58.522,115.200 58.185 C 113.550 57.847,111.555 57.145,110.767 56.624 C 108.933 55.412,106.261 54.508,103.544 54.180 C 102.166 54.014,100.597 53.438,99.154 52.570 C 96.827 51.169,93.127 50.000,91.016 49.999 C 90.347 49.999,89.230 49.684,88.534 49.299 C 87.838 48.915,86.518 48.183,85.599 47.674 C 84.681 47.165,82.580 46.490,80.930 46.174 C 79.123 45.828,76.950 45.054,75.465 44.227 C 73.786 43.292,71.852 42.643,69.400 42.193 C 66.938 41.740,65.220 41.163,63.965 40.366 C 62.956 39.725,60.886 38.913,59.365 38.561 C 55.239 37.605,54.406 37.221,54.360 36.251 C 54.324 35.486,54.288 35.501,54.000 36.400 C 53.693 37.359,53.678 37.363,53.640 36.500 C 53.597 35.538,53.206 35.354,52.564 35.996 C 52.329 36.231,51.687 36.261,50.984 36.070 C 49.839 35.759,19.009 35.476,18.200 35.769 M6.197 158.200 C 6.197 225.520,6.244 253.000,6.300 219.268 C 6.356 185.535,6.356 130.455,6.300 96.868 C 6.244 63.280,6.197 90.880,6.197 158.200 M280.413 117.007 C 281.506 117.560,282.400 118.103,282.400 118.213 C 282.400 118.393,278.441 116.524,278.033 116.152 C 277.561 115.722,278.647 116.112,280.413 117.007 M378.138 152.823 C 379.138 153.609,380.045 155.186,380.589 157.080 C 380.970 158.408,380.097 161.092,378.880 162.335 C 378.286 162.942,378.103 163.070,378.473 162.619 C 380.858 159.718,380.463 155.470,377.584 153.048 C 376.120 151.816,376.607 151.619,378.138 152.823 M362.180 170.033 C 361.872 170.531,358.565 172.015,357.867 171.969 C 357.491 171.945,361.893 169.606,362.324 169.601 C 362.392 169.601,362.327 169.795,362.180 170.033 M258.400 206.192 C 258.400 206.434,255.341 208.006,254.916 207.982 C 254.742 207.972,255.410 207.530,256.400 207.000 C 258.417 205.920,258.400 205.927,258.400 206.192 M189.516 230.560 C 189.232 230.867,188.932 231.055,188.849 230.976 C 188.766 230.897,188.190 231.095,187.569 231.416 C 186.948 231.737,186.296 231.992,186.120 231.982 C 185.743 231.961,189.252 230.045,189.716 230.018 C 189.889 230.008,189.799 230.252,189.516 230.560 M86.000 266.590 C 86.000 266.832,83.744 268.005,83.320 267.983 C 83.144 267.974,83.630 267.622,84.400 267.200 C 85.977 266.337,86.000 266.328,86.000 266.590 " stroke="none" fill="#D50000" fill-rule="evenodd"></path></g></svg>