<?xml version="1.0" standalone="no"?>
<!DOCTYPE svg PUBLIC "-//W3C//DTD SVG 20010904//EN"
 "http://www.w3.org/TR/2001/REC-SVG-20010904/DTD/svg10.dtd">
<svg version="1.0" xmlns="http://www.w3.org/2000/svg"
 width="512.000000pt" height="512.000000pt" viewBox="0 0 512.000000 512.000000"
 preserveAspectRatio="xMidYMid meet">

<g transform="translate(0.000000,512.000000) scale(0.100000,-0.100000)"
fill="#37474f" stroke="none">
<path d="M2365 4781 c-52 -22 -57 -39 -89 -300 l-30 -249 -110 -27 c-166 -41
-341 -116 -465 -199 l-54 -37 -116 89 c-306 234 -301 231 -355 208 -17 -8 -89
-70 -161 -138 l-130 -125 0 -50 c0 -50 2 -52 144 -229 79 -99 148 -184 152
-189 4 -6 -8 -35 -27 -65 -87 -136 -151 -288 -198 -470 l-32 -125 -244 -27
c-134 -15 -255 -33 -268 -40 -46 -24 -52 -53 -52 -250 0 -269 -10 -259 290
-288 287 -27 279 -25 286 -58 35 -166 126 -398 206 -523 19 -30 37 -59 41 -66
4 -6 -58 -96 -147 -212 -85 -111 -157 -215 -161 -230 -10 -48 15 -84 150 -210
127 -119 164 -142 211 -133 12 2 109 75 217 162 l195 158 68 -46 c133 -89 345
-177 490 -204 74 -13 64 14 94 -248 32 -276 28 -260 65 -297 l33 -33 200 0
c277 0 259 -20 292 325 12 121 23 225 25 231 1 5 33 16 69 22 148 28 374 120
513 210 l61 41 195 -158 c107 -87 206 -160 219 -162 52 -9 74 5 200 128 129
127 156 168 144 217 -3 12 -71 110 -152 217 -81 107 -148 199 -151 205 -2 6
20 49 48 95 87 140 157 315 190 476 15 74 -15 64 279 93 113 12 213 23 222 26
9 3 29 19 43 35 25 30 25 32 25 219 0 200 -5 228 -47 255 -15 10 -103 25 -262
43 l-239 27 -13 60 c-33 164 -119 376 -210 521 -22 33 -39 64 -39 68 0 4 65
88 145 187 80 98 150 190 155 204 21 55 3 84 -134 221 -136 136 -162 152 -215
133 -20 -8 -202 -145 -362 -271 l-36 -29 -83 52 c-141 87 -319 158 -487 194
-46 10 -83 19 -83 20 0 1 -11 110 -25 243 -26 261 -32 282 -87 301 -36 13
-373 14 -403 2z m145 -1180 l0 -169 -44 -11 c-79 -20 -205 -78 -293 -137 -209
-138 -368 -354 -437 -594 l-24 -85 -177 -3 -177 -2 7 62 c20 183 78 354 173
509 42 69 90 127 182 220 171 173 307 260 510 324 69 21 206 49 268 54 9 1 12
-39 12 -168z"/>
</g>
</svg>
